<svg id="Layer_1" version="1.1" viewBox="0 0 192 192" xml:space="preserve" xmlns="http://www.w3.org/2000/svg">
  <path fill="#00b1ff" d="M48.12 157.96H21.35L22.24 75c.84-5.07 1.84-9.09 2.98-12.05 1.14-2.96 3.02-5.66 5.64-8.12v-1.01c0-2.03-.47-3.76-1.4-5.2-4.57-5.24-7.36-8.67-8.37-10.27-.17-.59-.25-1.14-.25-1.65 0-1.61.97-2.62 2.92-3.04 2.03.93 4.02 3.3 5.96 7.1 1.94 5.24 3.59 8.33 4.95 9.26 1.35-.93 3.04-4.02 5.07-9.26 2.11-3.81 4.06-6.17 5.83-7.1 1.94.34 2.92 1.27 2.92 2.79 0 .59-.13 1.23-.38 1.9-1.01 1.61-3.81 5.03-8.37 10.27-.85 1.44-1.27 3.17-1.27 5.2v1.01c2.62 2.45 4.5 5.16 5.64 8.12 1.14 2.96 2.13 6.98 2.98 12.05l1.03 82.96zm0 .13H21.35l.89-82.96c.84-5.07 1.84-9.09 2.98-12.05 1.14-2.96 3.02-5.66 5.64-8.12v-1.02c0-2.03-.47-3.76-1.4-5.2-4.57-5.24-7.36-8.67-8.37-10.27-.17-.59-.25-1.14-.25-1.65 0-1.6.97-2.62 2.92-3.04 2.03.93 4.02 3.3 5.96 7.1 1.94 5.24 3.59 8.33 4.95 9.26 1.35-.93 3.04-4.02 5.07-9.26 2.11-3.81 4.06-6.17 5.83-7.1 1.94.34 2.92 1.27 2.92 2.79 0 .59-.13 1.23-.38 1.9-1.01 1.61-3.81 5.03-8.37 10.27-.85 1.44-1.27 3.17-1.27 5.2v1.02c2.62 2.45 4.5 5.16 5.64 8.12 1.14 2.96 2.13 6.98 2.98 12.05l1.03 82.96zm-4.7-54.8v-6.34h-17.5v6.34h17.5zm0 .13v-6.34h-17.5v6.34h17.5zm61.9 60.51c-1.52 0-2.83-.04-3.93-.13-2.37 0-3.55-.42-3.55-1.27 0-1.44 1.29-2.49 3.87-3.17 2.58-.68 4.44-1.33 5.58-1.97 1.14-.63 1.92-1.71 2.35-3.23.08-.25.13-1.56.13-3.93-.09-4.82-.89-11.04-2.41-18.65l-.51-1.9c-.34-.76-.51-1.31-.51-1.65 0-1.94.08-3.34.25-4.19 0-.34-.04-.55-.13-.63h-8.25l-.38 3.8c-.59 5.67-1.25 9.85-1.97 12.56-.72 2.71-2.01 6.68-3.87 11.92-.68 1.61-1.1 3.47-1.27 5.58-.17 1.61-.38 2.79-.63 3.55-.59 1.27-1.86 1.9-3.81 1.9l-2.54-.13c-1.27 0-2.92.09-4.95.25l-2.54.13c-1.52 0-2.28-.25-2.28-.76 0-.25.3-.63.89-1.14 1.01-1.27 2.79-2.28 5.33-3.04l1.52-.76 2.41-1.27c.76 0 1.73-1.56 2.92-4.69.59-1.94 1.06-3.89 1.4-5.83l.76-5.96c.84-6.09 1.4-9.43 1.65-10.02.17-.84.25-1.84.25-2.98s.21-2.22.63-3.23c.17-.51.32-1.08.44-1.71.13-.63.21-1.21.25-1.71.04-.51.36-2.83.95-6.98l1.65-12.81c-1.1 0-1.73-.06-1.9-.19-.17-.13-.25-.36-.25-.7 0-.76.38-2.71 1.14-5.83a56.4 56.4 0 01-1.21-.63c-.47-.25-.7-.63-.7-1.14 0-.25.08-.53.25-.83.17-.29.38-.57.63-.82s.51-.38.76-.38.38-.21.38-.63c0-.17-.25-1.14-.76-2.92l-.63-1.78c-1.1-3.97-2.37-5.96-3.81-5.96-.42 0-.72.25-.89.76-.17.93-.51 2.37-1.01 4.31-1.19 4.48-2.45 7.57-3.81 9.26-.85 1.01-1.95 1.82-3.3 2.41-3.3 1.52-6.51 2.58-9.64 3.17-2.28.51-3.68.85-4.19 1.01l5.71 39.7-2.92.63-1.27.38c-3.64-25.45-5.58-38.77-5.83-39.96 0-.17-.25-.29-.76-.38-2.11-.51-3.26-1.56-3.42-3.17 0-1.44.21-2.43.63-2.98.42-.55.89-.97 1.4-1.27.51-.29.84-.65 1.01-1.08l-2.28-15.35-1.65-2.03c-.85-1.35-1.27-2.71-1.27-4.06 0-1.52.25-2.58.76-3.17.34-.25.59-.55.76-.89l-3.68-24.99 4.19-.89v.38h.13l3.68 25.5 1.14 2.41c.17.34.38.97.63 1.9.51 1.95 1.01 3.38 1.52 4.31.84 1.19 3.55 3 8.12 5.45 3.04 1.69 5.33 3.17 6.85 4.44h.25c.59 0 1.1-1.22 1.52-3.68.42-3.55 1.01-6.22 1.78-7.99.34-.76 1.31-2.37 2.92-4.82 1.35-1.86 2.11-3 2.28-3.42 0-.25-.04-.59-.13-1.01l-.25-.63-.51.13c-1.35.68-2.28 1.01-2.79 1.01-.25 0-.55-.32-.89-.95-.34-.63-.63-1.25-.89-1.84l-.25-1.27c0-.34-.09-.51-.25-.51-.17 0-.28-.06-.32-.19-.04-.13-.06-.4-.06-.82-.17-.17-.51-.3-1.01-.38-.51-.08-.76-.55-.76-1.4 0-.84.38-2.79 1.14-5.83l.38-2.66c.25-1.27.76-3 1.52-5.2 1.6-4.57 4.9-6.98 9.89-7.23 1.86 0 3.25.34 4.19 1.02.93.68 1.73 1.95 2.41 3.81.42 1.27.63 2.75.63 4.44 0 3.13-.76 6.09-2.28 8.88-.59.85-.89 1.57-.89 2.16 0 .25.08.59.25 1.01.34 1.61.89 2.41 1.65 2.41.17 0 .38.06.63.19s.51.23.76.32c1.52.59 2.96 2.41 4.31 5.45 3.04 8.2 4.61 14.46 4.69 18.77.08.76.25 1.48.51 2.16h.13c.42 0 .89.17 1.4.51l.76.51c-.17.42-.25 1.01-.25 1.78 0 .25.17.38.51.38h.13c.25 0 .55.21.89.63.34.42.55.85.63 1.27 0 .25-.04.44-.13.57-.08.13-.63.57-1.65 1.33l1.52 5.46c0 .59-.11.95-.32 1.08-.21.13-.61.19-1.21.19 1.01 8.8 1.52 14.63 1.52 17.5 0 1.35-.17 2.75-.51 4.19-.42 2.11-.63 3.34-.63 3.68 0 .51.29 1.65.89 3.42.76 2.37 1.14 5.33 1.14 8.88 0 3.21-.21 7.91-.63 14.08l-.13 3.81c0 1.01.08 2.11.25 3.3l.13 2.28c0 .59-.09 1.19-.25 1.78-.17.59-.85.97-2.03 1.14-.85.17-2.79.25-5.83.25l-.97.11zm0 .12c-1.52 0-2.83-.04-3.93-.13-2.37 0-3.55-.42-3.55-1.27 0-1.44 1.29-2.49 3.87-3.17 2.58-.68 4.44-1.33 5.58-1.97 1.14-.63 1.92-1.71 2.35-3.23.08-.25.13-1.56.13-3.93-.09-4.82-.89-11.04-2.41-18.65l-.51-1.9c-.34-.76-.51-1.31-.51-1.65 0-1.94.08-3.34.25-4.19 0-.34-.04-.55-.13-.63h-8.25l-.38 3.8c-.59 5.67-1.25 9.85-1.97 12.56-.72 2.71-2.01 6.68-3.87 11.92-.68 1.61-1.1 3.47-1.27 5.58-.17 1.61-.38 2.79-.63 3.55-.59 1.27-1.86 1.9-3.81 1.9l-2.54-.13c-1.27 0-2.92.09-4.95.25l-2.54.13c-1.52 0-2.28-.25-2.28-.76 0-.25.3-.63.89-1.14 1.01-1.27 2.79-2.28 5.33-3.04l1.52-.76 2.41-1.27c.76 0 1.73-1.56 2.92-4.69.59-1.94 1.06-3.89 1.4-5.83l.76-5.96c.84-6.09 1.4-9.43 1.65-10.02.17-.84.25-1.84.25-2.98s.21-2.22.63-3.23c.17-.51.32-1.08.44-1.71.13-.63.21-1.21.25-1.71.04-.51.36-2.83.95-6.98L95.05 100c-1.1 0-1.73-.06-1.9-.19-.17-.13-.25-.36-.25-.7 0-.76.38-2.71 1.14-5.83a56.4 56.4 0 01-1.21-.63c-.47-.25-.7-.63-.7-1.14 0-.25.08-.53.25-.82.17-.29.38-.57.63-.82s.51-.38.76-.38.38-.21.38-.63c0-.17-.25-1.14-.76-2.92l-.63-1.78c-1.1-3.97-2.37-5.96-3.81-5.96-.42 0-.72.25-.89.76-.17.93-.51 2.37-1.01 4.31-1.19 4.48-2.45 7.57-3.81 9.26-.85 1.01-1.95 1.82-3.3 2.41-3.3 1.52-6.51 2.58-9.64 3.17-2.28.51-3.68.85-4.19 1.01l5.71 39.7-2.92.63-1.27.38c-3.64-25.45-5.58-38.77-5.83-39.96 0-.17-.25-.29-.76-.38-2.11-.51-3.26-1.56-3.42-3.17 0-1.44.21-2.43.63-2.98.42-.55.89-.97 1.4-1.27.51-.29.84-.65 1.01-1.08l-2.28-15.35-1.65-2.03c-.85-1.35-1.27-2.71-1.27-4.06 0-1.52.25-2.58.76-3.17.34-.25.59-.55.76-.89L53.3 40.5l4.19-.89V40h.13l3.68 25.5 1.14 2.41c.17.34.38.97.63 1.9.51 1.95 1.01 3.38 1.52 4.31.84 1.19 3.55 3 8.12 5.45 3.04 1.69 5.33 3.17 6.85 4.44h.25c.59 0 1.1-1.22 1.52-3.68.42-3.55 1.01-6.22 1.78-7.99.34-.76 1.31-2.37 2.92-4.82 1.35-1.86 2.11-3 2.28-3.42 0-.25-.04-.59-.13-1.01l-.25-.63-.51.13c-1.35.68-2.28 1.02-2.79 1.02-.25 0-.55-.32-.89-.95-.34-.63-.63-1.25-.89-1.84l-.25-1.27c0-.34-.09-.51-.25-.51-.17 0-.28-.06-.32-.19-.04-.13-.06-.4-.06-.82-.17-.17-.51-.29-1.01-.38-.51-.08-.76-.55-.76-1.4 0-.84.38-2.79 1.14-5.83l.38-2.66c.25-1.27.76-3 1.52-5.2 1.6-4.57 4.9-6.98 9.89-7.23 1.86 0 3.25.34 4.19 1.01.93.68 1.73 1.95 2.41 3.81.42 1.27.63 2.75.63 4.44 0 3.13-.76 6.09-2.28 8.88-.59.85-.89 1.57-.89 2.16 0 .25.08.59.25 1.01.34 1.61.89 2.41 1.65 2.41.17 0 .38.06.63.19s.51.23.76.32c1.52.59 2.96 2.41 4.31 5.45 3.04 8.2 4.61 14.46 4.69 18.77.08.76.25 1.48.51 2.16h.13c.42 0 .89.17 1.4.51l.76.51c-.17.42-.25 1.02-.25 1.78 0 .25.17.38.51.38h.13c.25 0 .55.21.89.63.34.42.55.85.63 1.27 0 .25-.04.44-.13.57-.08.13-.63.57-1.65 1.33l1.52 5.45c0 .59-.11.95-.32 1.08-.21.13-.61.19-1.21.19 1.01 8.8 1.52 14.63 1.52 17.5 0 1.35-.17 2.75-.51 4.19-.42 2.12-.63 3.34-.63 3.68 0 .51.29 1.65.89 3.42.76 2.37 1.14 5.33 1.14 8.88 0 3.21-.21 7.91-.63 14.08l-.13 3.81c0 1.01.08 2.11.25 3.3l.13 2.28c0 .59-.09 1.19-.25 1.78-.17.59-.85.97-2.03 1.14-.85.17-2.79.25-5.83.25l-1 .1zM67.14 93.27c.42 0 .8-.08 1.14-.25l7.74-3.55-5.2-4.19c-3.64-2.96-6.17-5.2-7.61-6.72l2.03 14.33c.59.26 1.23.38 1.9.38zm0 .13c.42 0 .8-.08 1.14-.25l7.74-3.55-5.2-4.19c-3.64-2.96-6.17-5.2-7.61-6.72l2.03 14.33c.59.25 1.23.38 1.9.38zm67.36 70.4l-.13-29.55c-.17-4.99-2.35-9.83-6.53-14.52-4.19-4.69-7.67-8.14-10.46-10.34l8.88-74.97c1.1-.42 2.45-.63 4.06-.63 5.24 0 8.79 2.79 10.65 8.37v121.52l-6.47.12zm0 .13l-.13-29.55c-.17-4.99-2.35-9.83-6.53-14.52-4.19-4.69-7.67-8.14-10.46-10.34l8.88-74.97c1.1-.42 2.45-.63 4.06-.63 5.24 0 8.79 2.79 10.65 8.37V163.8l-6.47.13zm1.9-43.13l.25-76.49c-.42-1.18-1.16-2.05-2.22-2.6-1.06-.55-2.09-.82-3.11-.82-.68 0-1.06.11-1.14.32-.08.21-.17.36-.25.44l-7.1 63.3c7.78 6 12.3 11.28 13.57 15.85zm0 .13l.25-76.49c-.42-1.18-1.16-2.05-2.22-2.6-1.06-.55-2.09-.82-3.11-.82-.68 0-1.06.11-1.14.32-.08.21-.17.36-.25.44l-7.1 63.3c7.78 5.99 12.3 11.28 13.57 15.85zm22.33 43h-6.47V45.07c0-3.21.99-5.9 2.98-8.05 1.99-2.16 4.29-3.23 6.91-3.23 2.54 0 4.84 1.25 6.91 3.74 2.07 2.5 3.11 5.35 3.11 8.56v78.01h-6.34V46.09c0-1.94-.42-3.3-1.27-4.06-.85-.76-1.65-1.14-2.41-1.14-.68 0-1.42.32-2.22.95-.8.63-1.21 1.71-1.21 3.23v118.86zm0 .12h-6.47V45.2c0-3.21.99-5.9 2.98-8.05 1.99-2.16 4.29-3.23 6.91-3.23 2.54 0 4.84 1.25 6.91 3.74 2.07 2.5 3.11 5.35 3.11 8.56v78.01h-6.34V46.21c0-1.94-.42-3.3-1.27-4.06-.85-.76-1.65-1.14-2.41-1.14-.68 0-1.42.32-2.22.95-.8.63-1.21 1.71-1.21 3.23v118.86z"/>
</svg>
