<svg viewBox="0 0 192 192" xmlns="http://www.w3.org/2000/svg">
  <path fill="#00b1ff" d="M44.44 163.8l-3.68-1.27c-.25 0-.42.04-.51.13a5.82 5.82 0 01-2.41.76c-.25 0-.51-.06-.76-.19s-.55-.19-.89-.19c-.34 0-.63.08-.89.25.17-1.01 1.27-1.73 3.3-2.16l6.6.89c4.65-1.94 8.88-8.96 12.68-21.06l-.13-.63c-5.41-10.99-8.2-16.57-8.37-16.74-4.65-4.06-7.93-8.01-9.83-11.86-1.9-3.85-2.85-6.15-2.85-6.91l-.13-.25a13.37 13.37 0 01-.51-3.42v-1.78c.17-3.3 2.03-8.29 5.58-14.97l.13-.25a3.12 3.12 0 00-.51-.89 7.53 7.53 0 00-3.17-.76c-1.35 0-2.58.42-3.68 1.27a165.11 165.11 0 00-10.02 7.48c-2.11 1.44-3.47 2.24-4.06 2.41.25-.59 1.27-1.94 3.04-4.06 4.06-4.48 7.91-8.41 11.54-11.8l.25-.38c2.03-5.07 4.65-7.61 7.86-7.61 2.87 0 4.61.72 5.2 2.16h.13a8.67 8.67 0 011.52 4.57c0 1.44-.47 2.79-1.4 4.06-4.4 6.77-6.72 12.6-6.98 17.5 0 .34.1.55.32.63.21.08.36.13.44.13l.51-.13a12.1 12.1 0 018.5-3.42c3.64 0 7.78 1.52 12.43 4.57v.89c0 .34.02.85.06 1.52.04.68.23 1.52.57 2.54 0 1.01.97 3.47 2.92 7.36 1.94 3.89 5.28 7.91 10.02 12.05l4.82 9.51a60.74 60.74 0 00-7.1-.38c-.51.17-.76.42-.76.76 0 .08.49 1.16 1.46 3.23l1.52 3.24c.04.08.1.42.19 1.01.08.59.13 1.52.13 2.79l-.51 5.45a78.72 78.72 0 00-.38 6.6c0 .93.04 1.65.13 2.16a9.6 9.6 0 01-3.42 2.66l-.63-.13c2.11-1.18 3.17-4.44 3.17-9.77 0-5.83-.61-9.62-1.84-11.35-1.23-1.73-3.41-3.95-6.53-6.66a60.12 60.12 0 00-3.42-2.85 8.56 8.56 0 00-2.03-1.21 4 4 0 00-1.14-.25c-.51 0-.93.34-1.27 1.01a4.27 4.27 0 00-.51 1.9c0 .85.51 3.3 1.52 7.36v.25c0 1.35-1.14 4.1-3.42 8.25-2.45 4.48-3.98 8.5-4.57 12.05v.25c0 .17.06.32.19.44a.6.6 0 00.44.19c2.71 0 4.35.47 4.95 1.4l-.13.51a4.32 4.32 0 00-2.66-.76l-11.02 1.9zm0 .13l-3.68-1.27c-.25 0-.42.04-.51.13a5.82 5.82 0 01-2.41.76c-.25 0-.51-.06-.76-.19s-.55-.19-.89-.19c-.34 0-.63.08-.89.25.17-1.02 1.27-1.73 3.3-2.16l6.6.89c4.65-1.94 8.88-8.96 12.68-21.06l-.13-.63c-5.41-10.99-8.2-16.57-8.37-16.74-4.65-4.06-7.93-8.01-9.83-11.86-1.9-3.85-2.85-6.15-2.85-6.91l-.13-.25a13.37 13.37 0 01-.51-3.42V99.5c.17-3.3 2.03-8.29 5.58-14.97l.13-.25a3.12 3.12 0 00-.51-.89 7.53 7.53 0 00-3.17-.76c-1.35 0-2.58.42-3.68 1.27a165.11 165.11 0 00-10.02 7.48c-2.11 1.44-3.47 2.24-4.06 2.41.25-.59 1.27-1.94 3.04-4.06 4.06-4.48 7.91-8.41 11.54-11.8l.25-.38c2.03-5.07 4.65-7.61 7.86-7.61 2.87 0 4.61.72 5.2 2.16h.13a8.67 8.67 0 011.52 4.57c0 1.44-.47 2.79-1.4 4.06-4.4 6.77-6.72 12.6-6.98 17.5 0 .34.1.55.32.63.21.08.36.13.44.13l.51-.13a12.1 12.1 0 018.5-3.42c3.64 0 7.78 1.52 12.43 4.57v.89c0 .34.02.85.06 1.52.04.68.23 1.52.57 2.54 0 1.01.97 3.47 2.92 7.36 1.94 3.89 5.28 7.91 10.02 12.05l4.82 9.51a60.74 60.74 0 00-7.1-.38c-.51.17-.76.42-.76.76 0 .08.49 1.16 1.46 3.23l1.52 3.23c.04.09.1.42.19 1.02.08.59.13 1.52.13 2.79l-.51 5.45a78.72 78.72 0 00-.38 6.6c0 .93.04 1.65.13 2.16a9.6 9.6 0 01-3.42 2.66l-.63-.13c2.11-1.18 3.17-4.44 3.17-9.77 0-5.83-.61-9.62-1.84-11.35-1.23-1.73-3.41-3.95-6.53-6.66a60.12 60.12 0 00-3.42-2.85 8.56 8.56 0 00-2.03-1.21 4 4 0 00-1.14-.25c-.51 0-.93.34-1.27 1.01a4.27 4.27 0 00-.51 1.9c0 .85.51 3.3 1.52 7.36v.25c0 1.35-1.14 4.1-3.42 8.25-2.45 4.48-3.98 8.5-4.57 12.05v.25c0 .17.06.32.19.44a.6.6 0 00.44.19c2.71 0 4.35.47 4.95 1.4l-.13.51a4.32 4.32 0 00-2.66-.76l-11.02 1.9zm5.2-109.09c-8.12 0-17.5-2.75-28.16-8.25 10.65-5.5 20.04-8.24 28.16-8.24 8.29 0 17.71 2.75 28.29 8.24-10.66 5.5-20.09 8.25-28.29 8.25zm0 .13c-8.12 0-17.5-2.75-28.16-8.25 10.65-5.5 20.04-8.24 28.16-8.24 8.29 0 17.71 2.75 28.29 8.24-10.66 5.5-20.09 8.25-28.29 8.25zM25.16 155.93h-2.92v-30.44h2.92v30.44zm0 .13h-2.92v-30.44h2.92v30.44zM49.64 51.67c6.68 0 13.7-1.65 21.06-4.95-7.36-3.38-14.38-5.07-21.06-5.07-6.51 0-13.49 1.69-20.93 5.07 7.44 3.3 14.42 4.95 20.93 4.95zm0 .12c6.68 0 13.7-1.65 21.06-4.95-7.36-3.38-14.38-5.07-21.06-5.07-6.51 0-13.49 1.69-20.93 5.07 7.44 3.31 14.42 4.95 20.93 4.95zm-13.7 104.14h-2.79v-30.44h2.79v30.44zm0 .13h-2.79v-30.44h2.79v30.44zm10.78-.13h-2.79v-30.44h2.79v30.44zm0 .13h-2.79v-30.44h2.79v30.44zm26.13 7.74l-3.68-1.27c-.25 0-.47.04-.63.13a5.1 5.1 0 01-2.16.63v.13c-.34 0-.57-.02-.7-.06a.85.85 0 01-.32-.19l-.76-.13c-.34 0-.68.08-1.01.25v-.13c.17-.42.51-.8 1.01-1.14l.76-.38a7.8 7.8 0 011.65-.51l6.6.89a10.3 10.3 0 003.43-2.54c.08 0 .17-.04.25-.13v-.13c3.13-3.13 6.09-9.22 8.88-18.27l.13-.25-3.17-6.47-5.33-10.66c-4.65-4.06-7.95-7.99-9.89-11.8a80.73 80.73 0 01-2.35-5.14 6.76 6.76 0 01-.57-2.09 13.7 13.7 0 01-.63-4.31c0-.17.04-.3.13-.38v-.51c.17-3.3 2.03-8.29 5.58-14.97l.13-.25a3.12 3.12 0 00-.51-.89 7.78 7.78 0 00-3.3-.76c-1.27 0-2.5.42-3.68 1.27a256.3 256.3 0 00-10.02 7.48c-2.11 1.44-3.42 2.24-3.93 2.41.25-.59 1.22-1.94 2.92-4.06a174.7 174.7 0 0111.67-11.8c.08-.08.13-.21.13-.38 1.78-4.31 3.89-6.81 6.34-7.48l1.65-.13c2.87 0 4.61.72 5.2 2.16a8.83 8.83 0 011.52 4.69c0 1.35-.42 2.66-1.27 3.93-4.48 6.77-6.81 12.6-6.98 17.5 0 .34.08.55.25.63.17.08.34.13.51.13.17 0 .29-.04.38-.13a12.41 12.41 0 018.5-3.42c5.24 0 11.5 3.04 18.77 9.13l.13.38c0 1.01.99 3.47 2.98 7.36s5.35 7.91 10.08 12.05l5.33 10.53-8.12-1.14h-.51c0-.17-1.65-.25-4.95-.25-.42.17-.63.47-.63.89v.25l1.9 3.93c.25.68.55 1.31.89 1.9v.13c.34.25.51 1.01.51 2.28 0 2.03-.15 4.46-.44 7.29-.3 2.83-.44 5.05-.44 6.66 0 2.54.44 3.91 1.33 4.12.89.21 1.33.36 1.33.44l-5.83-.76c1.44-1.35 2.24-3.97 2.41-7.86 0-6.6-.59-10.74-1.78-12.43l-1.65-2.03a86.5 86.5 0 00-5.07-4.82c-3.04-2.87-5.2-4.31-6.47-4.31-.59 0-1.06.38-1.4 1.14a3.81 3.81 0 00-.38 1.9c0 .51.13 1.4.38 2.66v.29c.08 0 .13.04.13.13v.13c0 .25.34 1.61 1.01 4.06 0 1.52-1.14 4.36-3.42 8.5-2.45 4.48-3.98 8.5-4.57 12.05v.25c0 .17.06.32.19.44s.27.19.44.19c2.62 0 4.27.47 4.95 1.4l-.13.51a4.32 4.32 0 00-2.66-.76l-6.34 1.01-4.7.89zm0 .13l-3.68-1.27c-.25 0-.47.04-.63.13a5.1 5.1 0 01-2.16.63v.13c-.34 0-.57-.02-.7-.06a.85.85 0 01-.32-.19l-.76-.13c-.34 0-.68.08-1.01.25v-.13c.17-.42.51-.8 1.01-1.14l.76-.38a7.8 7.8 0 011.65-.51l6.6.89a10.3 10.3 0 003.43-2.54c.08 0 .17-.04.25-.13v-.13c3.13-3.13 6.09-9.22 8.88-18.27l.13-.25-3.17-6.47-5.33-10.66c-4.65-4.06-7.95-7.99-9.89-11.8a80.73 80.73 0 01-2.35-5.14 6.76 6.76 0 01-.57-2.09 13.7 13.7 0 01-.63-4.31c0-.17.04-.3.13-.38v-.51c.17-3.3 2.03-8.29 5.58-14.97l.13-.25a3.12 3.12 0 00-.51-.89 7.78 7.78 0 00-3.3-.76c-1.27 0-2.5.42-3.68 1.27a256.3 256.3 0 00-10.02 7.48c-2.11 1.44-3.42 2.24-3.93 2.41.25-.59 1.22-1.94 2.92-4.06a174.7 174.7 0 0111.67-11.8c.08-.08.13-.21.13-.38 1.78-4.31 3.89-6.81 6.34-7.48l1.65-.13c2.87 0 4.61.72 5.2 2.16a8.83 8.83 0 011.52 4.69c0 1.35-.42 2.66-1.27 3.93-4.48 6.77-6.81 12.6-6.98 17.5 0 .34.08.55.25.63.17.08.34.13.51.13.17 0 .29-.04.38-.13a12.41 12.41 0 018.5-3.42c5.24 0 11.5 3.04 18.77 9.13l.13.38c0 1.01.99 3.47 2.98 7.36s5.35 7.91 10.08 12.05l5.33 10.53-8.12-1.14h-.51c0-.17-1.65-.25-4.95-.25-.42.17-.63.47-.63.89v.25l1.9 3.93c.25.68.55 1.31.89 1.9v.13c.34.25.51 1.01.51 2.28 0 2.03-.15 4.46-.44 7.29-.3 2.83-.44 5.05-.44 6.66 0 2.54.44 3.91 1.33 4.12.89.21 1.33.36 1.33.44l-5.83-.76c1.44-1.35 2.24-3.97 2.41-7.86 0-6.6-.59-10.74-1.78-12.43l-1.65-2.03a86.5 86.5 0 00-5.07-4.82c-3.04-2.87-5.2-4.31-6.47-4.31-.59 0-1.06.38-1.4 1.14a3.81 3.81 0 00-.38 1.9c0 .51.13 1.4.38 2.66v.25c.08 0 .13.04.13.13v.13c0 .25.34 1.61 1.01 4.06 0 1.52-1.14 4.36-3.42 8.5-2.45 4.48-3.98 8.5-4.57 12.05v.25c0 .17.06.32.19.44s.27.19.44.19c2.62 0 4.27.47 4.95 1.4l-.13.51a4.32 4.32 0 00-2.66-.76L77.55 163l-4.7.93zm-10.78-.39c.17-.93.4-1.46.7-1.58.3-.13.53-.19.7-.19h.25c-.51.42-.8.97-.89 1.65l-.76.12zm0 .13c.17-.93.4-1.46.7-1.58.3-.13.53-.19.7-.19h.25c-.51.42-.8.97-.89 1.65l-.76.12zm8.24.13l-2.03-.25.63-.25 1.4.5zm0 .13l-2.03-.25.63-.25 1.4.5zm99.58-122.66H81.73v-7.61h88.16v7.61zm0 .12H81.73v-7.61h88.16v7.61zM120.67 52.3H81.73v-7.61h38.94v7.61zm0 .13H81.73v-7.61h38.94v7.61zm0 10.91H81.73v-7.61h38.94v7.61zm0 .12H81.73v-7.61h38.94v7.61zm14.08 100.47c-1.78 0-4.36-.29-7.74-.89-.25 0-1.02.17-2.28.51.08-.51.19-.93.32-1.27.13-.34.44-.51.95-.51 1.86.42 3.68.63 5.46.63 1.52 0 3.04-.65 4.57-1.97 1.52-1.31 2.32-3.91 2.41-7.8 0-6.68-.55-10.82-1.65-12.43l-2.28-2.66a57.28 57.28 0 00-4.44-4.19 57.59 57.59 0 00-3.3-2.92c-1.44-.93-2.5-1.39-3.17-1.39-.68 0-1.14.38-1.4 1.14-.17.25-.28.47-.32.63-.04.17-.06.47-.06.89 0 1.19.21 2.62.63 4.31 0 .17.04.3.13.38v.38c.08 0 .13.04.13.13l.63 2.41c0 1.52-1.14 4.36-3.42 8.5-2.45 4.48-4.02 8.5-4.69 12.05 0 .25.06.47.19.63.13.17.32.25.57.25 2.62 0 4.27.47 4.95 1.4l-.13.51a4.32 4.32 0 00-2.66-.76c-.17 0-.3.04-.38.13l-10.66 1.78-1.4-.38c-.76-.34-1.57-.63-2.41-.89l-.51.13c-.93.51-1.73.76-2.41.76-.17 0-.38-.06-.63-.19s-.55-.19-.89-.19c-.34 0-.68.08-1.01.25.25-.93 1.35-1.65 3.3-2.16l6.72.89c.51-.17.93-.42 1.27-.76h.13c0-.08.04-.15.13-.19.08-.04.17-.11.25-.19 3.89-2.79 7.48-9.43 10.78-19.92l.13-.25c0-.17-.04-.29-.13-.38l-8.37-16.74c-4.65-4.06-7.95-7.97-9.89-11.73-1.95-3.76-2.92-6.19-2.92-7.29-.34-.76-.51-2.03-.51-3.81v-1.39c.17-3.3 1.99-8.29 5.46-14.97.08-.08.13-.21.13-.38 0-.25-.13-.51-.38-.76a8.39 8.39 0 00-3.3-.76c-1.27 0-2.5.42-3.68 1.27a256.3 256.3 0 00-10.02 7.48c-2.11 1.44-3.42 2.24-3.93 2.41.25-.59 1.23-1.94 2.92-4.06 4.06-4.48 7.91-8.41 11.54-11.8l.25-.38c1.78-4.31 3.89-6.81 6.34-7.48l1.65-.13c2.87 0 4.61.72 5.2 2.16a8.83 8.83 0 011.52 4.69c0 1.35-.42 2.66-1.27 3.93-4.48 6.77-6.81 12.6-6.98 17.5 0 .34.08.55.25.63.17.08.34.13.51.13.17 0 .29-.04.38-.13a12.41 12.41 0 018.5-3.42c4.4 0 9.55 2.2 15.48 6.6 10.23 7.78 18.05 14.08 23.47 18.9 5.41 4.82 11.37 7.65 17.88 8.5.34.25.51.85.51 1.78v1.27c-.08.76-.63 2.37-1.65 4.82a7.06 7.06 0 01-3.55 1.01c-.85 0-1.73-.13-2.66-.38-2.54-.84-6.47-1.82-11.8-2.92a67.32 67.32 0 00-13.95-1.52c-.17 0-.38.13-.63.38v.76l2.79 5.96c.25.51.38 1.82.38 3.93a53 53 0 01-.38 5.45 51.7 51.7 0 00-.51 6.34c0 .59.06 1.38.19 2.35.13.97.29 1.58.51 1.84.21.25.4.42.57.51 2.87.59 4.52 1.23 4.95 1.9-.59 0-1.1.08-1.52.25-.42.17-.85.25-1.27.25-.42 0-.93-.08-1.52-.25l-.25-.13c-1.1 0-2.45.25-4.06.76-.45.18-1.13.27-2.06.27zm0 .12c-1.78 0-4.36-.29-7.74-.89-.25 0-1.02.17-2.28.51.08-.51.19-.93.32-1.27.13-.34.44-.51.95-.51 1.86.42 3.68.63 5.46.63 1.52 0 3.04-.65 4.57-1.97 1.52-1.31 2.32-3.91 2.41-7.8 0-6.68-.55-10.82-1.65-12.43l-2.28-2.66a57.28 57.28 0 00-4.44-4.19 57.59 57.59 0 00-3.3-2.92c-1.44-.93-2.5-1.39-3.17-1.39-.68 0-1.14.38-1.4 1.14-.17.25-.28.46-.32.63-.04.17-.06.47-.06.89 0 1.19.21 2.62.63 4.31 0 .17.04.3.13.38v.38c.08 0 .13.04.13.13l.63 2.41c0 1.52-1.14 4.36-3.42 8.5-2.45 4.48-4.02 8.5-4.69 12.05 0 .25.06.47.19.63.13.17.32.25.57.25 2.62 0 4.27.47 4.95 1.4l-.13.51a4.32 4.32 0 00-2.66-.76c-.17 0-.3.04-.38.13l-10.66 1.78-1.4-.38c-.76-.34-1.57-.63-2.41-.89l-.51.13c-.93.51-1.73.76-2.41.76-.17 0-.38-.06-.63-.19s-.55-.19-.89-.19c-.34 0-.68.08-1.01.25.25-.93 1.35-1.65 3.3-2.16l6.72.89c.51-.17.93-.42 1.27-.76h.13c0-.08.04-.15.13-.19.08-.04.17-.11.25-.19 3.89-2.79 7.48-9.43 10.78-19.92l.13-.25c0-.17-.04-.29-.13-.38l-8.37-16.74c-4.65-4.06-7.95-7.97-9.89-11.73-1.95-3.76-2.92-6.19-2.92-7.29-.34-.76-.51-2.03-.51-3.81v-1.4c.17-3.3 1.99-8.29 5.46-14.97.08-.08.13-.21.13-.38 0-.25-.13-.51-.38-.76a8.39 8.39 0 00-3.3-.76c-1.27 0-2.5.42-3.68 1.27a256.3 256.3 0 00-10.02 7.48c-2.11 1.44-3.42 2.24-3.93 2.41.25-.59 1.23-1.94 2.92-4.06 4.06-4.48 7.91-8.41 11.54-11.8l.25-.38c1.78-4.31 3.89-6.81 6.34-7.48l1.65-.13c2.87 0 4.61.72 5.2 2.16a8.83 8.83 0 011.52 4.69c0 1.35-.42 2.66-1.27 3.93-4.48 6.77-6.81 12.6-6.98 17.5 0 .34.08.55.25.63.17.08.34.13.51.13.17 0 .29-.04.38-.13a12.41 12.41 0 018.5-3.42c4.4 0 9.55 2.2 15.48 6.6 10.23 7.78 18.05 14.08 23.47 18.9 5.41 4.82 11.37 7.65 17.88 8.5.34.25.51.85.51 1.78v1.27c-.08.76-.63 2.37-1.65 4.82a7.07 7.07 0 01-3.55 1.02c-.85 0-1.73-.13-2.66-.38-2.54-.84-6.47-1.82-11.8-2.92a68 68 0 00-13.95-1.52c-.17 0-.38.13-.63.38v.76l2.79 5.96c.25.51.38 1.82.38 3.93a53 53 0 01-.38 5.45 51.7 51.7 0 00-.51 6.34c0 .59.06 1.38.19 2.35.13.97.29 1.58.51 1.84.21.25.4.42.57.51 2.87.59 4.52 1.23 4.95 1.9-.59 0-1.1.08-1.52.25-.42.17-.85.25-1.27.25-.42 0-.93-.08-1.52-.25l-.25-.13c-1.1 0-2.45.25-4.06.76-.45.19-1.13.27-2.06.27zm-37.67-.38l-4.44-.63-2.16.51c.08-.93.3-1.46.63-1.58.34-.13.55-.19.63-.19 1.69.42 3.51.63 5.45.63h.25c-.23.33-.36.75-.36 1.26zm0 .13l-4.44-.63-2.16.51c.08-.93.3-1.46.63-1.58.34-.13.55-.19.63-.19 1.69.42 3.51.63 5.45.63h.25c-.23.33-.36.75-.36 1.26zm5.07 0l1.01-.51.25.13-1.26.38zm0 .13l1.01-.51.25.13-1.26.38zm60.13-67.99h-9.51c-1.35-.84-2.03-2.92-2.03-6.22v-2.16c0-.08-.08-.17-.25-.25h-.25c-.25.17-.53.49-.82.95-.3.47-.66.91-1.08 1.33a13.61 13.61 0 01-1.01-4.82c0-.42.04-.8.13-1.14 0-.25-.13-.38-.38-.38-.08 0-.13.04-.13.13a23.62 23.62 0 00-2.41 2.28 59.3 59.3 0 00-2.92 5.07c-1.69 3.38-4.1 5.07-7.23 5.07-1.1 0-2.79-.3-5.07-.89-.25-.51-.42-.76-.51-.76-.59 0-.89-.13-.89-.38v-.13c0-.59.89-2.16 2.66-4.69 3.21-4.23 5.56-7.44 7.04-9.64a73.12 73.12 0 017.04-8.44c3.21-3.42 6.38-5.94 9.51-7.55l.13-.25a60.3 60.3 0 011.9-6.85l.51-.89h.25l.51.51c.08.09 1.18.13 3.3.13 2.11 0 3.21-.06 3.3-.19a.66.66 0 01.25-.25l.38-.19c.17.09.25.15.25.19 0 .04.08.19.25.44.17.25.34.63.51 1.14l.13.25c.68.34 1.48.93 2.41 1.78 1.27 1.19 1.9 2.45 1.9 3.81 0 .51-.04.8-.13.89h-.25c-.25-.59-1.01-1.14-2.28-1.65h-.25c-.08.09-.13.63-.13 1.65 0 1.78-.59 3.64-1.78 5.58-6.17 9.89-9.26 15.6-9.26 17.12v1.4c0 1.61.21 3.55.63 5.83.08 0 .13.04.13.13.42.42.89.63 1.39.63h4.82c1.27 0 2.03.34 2.28 1.01a1.22 1.22 0 00-.63-.25.84.84 0 00-.63.25c-.01.27-.6.4-1.78.4zm0 .12h-9.51c-1.35-.84-2.03-2.92-2.03-6.21v-2.16c0-.08-.08-.17-.25-.25h-.25c-.25.17-.53.49-.82.95-.3.47-.66.91-1.08 1.33a13.61 13.61 0 01-1.01-4.82c0-.42.04-.8.13-1.14 0-.25-.13-.38-.38-.38-.08 0-.13.04-.13.13a23.62 23.62 0 00-2.41 2.28c-.34.42-1.31 2.12-2.92 5.07-1.69 3.38-4.1 5.07-7.23 5.07-1.1 0-2.79-.3-5.07-.89-.25-.51-.42-.76-.51-.76-.59 0-.89-.13-.89-.38v-.13c0-.59.89-2.16 2.66-4.69 3.21-4.23 5.56-7.44 7.04-9.64a73.12 73.12 0 017.04-8.44c3.21-3.42 6.38-5.94 9.51-7.55l.13-.25a60.3 60.3 0 011.9-6.85l.51-.89h.25l.51.51c.08.08 1.18.13 3.3.13 2.11 0 3.21-.06 3.3-.19a.66.66 0 01.25-.25l.38-.19c.17.08.25.15.25.19 0 .04.08.19.25.44.17.25.34.63.51 1.14l.13.25c.68.34 1.48.93 2.41 1.78 1.27 1.19 1.9 2.45 1.9 3.81 0 .51-.04.8-.13.89h-.25c-.25-.59-1.01-1.14-2.28-1.65h-.25c-.08.08-.13.63-.13 1.65 0 1.78-.59 3.64-1.78 5.58-6.17 9.89-9.26 15.6-9.26 17.12v1.39c0 1.61.21 3.55.63 5.83.08 0 .13.04.13.13.42.42.89.63 1.39.63h4.82c1.27 0 2.03.34 2.28 1.01a1.22 1.22 0 00-.63-.25.84.84 0 00-.63.25c-.01.28-.6.4-1.78.4zm-6.72-1.65l.13-.38a37.21 37.21 0 01-.89-5.58c-.08-.17-.21-.25-.38-.25-.09 0-.47.3-1.14.89-.51-.84-.85-1.27-1.01-1.27-.17 0-.25.25-.25.76 0 2.28.15 3.81.44 4.57.3.76 1.25 1.19 2.85 1.27h.25zm0 .13l.13-.38a37.21 37.21 0 01-.89-5.58c-.08-.17-.21-.25-.38-.25-.09 0-.47.3-1.14.89-.51-.84-.85-1.27-1.01-1.27-.17 0-.25.25-.25.76 0 2.28.15 3.81.44 4.57.3.76 1.25 1.19 2.85 1.27h.25z"/>
</svg>