<svg viewBox="0 0 192 192" xmlns="http://www.w3.org/2000/svg">
  <path fill="#00b1ff" d="M166.21 51.67h-4.95v-7.48h-12.18v7.48h-4.95v-7.48h-11.92v7.48h-4.95v-7.48h-12.18v7.48h-4.95v-7.48H97.97v7.48h-4.95v-7.48H81.1v7.48h-5.2v-7.48H63.97v7.48h-4.95v-7.48H46.85v7.48H41.9v-7.48H29.72v7.48h-4.95v-7.48h-4.44V33.66h151.33v10.53h-5.46v7.48zm0 .12h-4.95v-7.48h-12.18v7.48h-4.95v-7.48h-11.92v7.48h-4.95v-7.48h-12.18v7.48h-4.95v-7.48H97.97v7.48h-4.95v-7.48H81.1v7.48h-5.2v-7.48H63.97v7.48h-4.95v-7.48H46.85v7.48H41.9v-7.48H29.72v7.48h-4.95v-7.48h-4.44V33.78h151.33v10.53h-5.46v7.48zM100.5 163.93H66.13a5.26 5.26 0 00-3.42-1.27c-1.02 0-2.03.3-3.04.89 0-.51.36-1.06 1.08-1.65a4.57 4.57 0 012.98-.89c1.01 0 2.2.21 3.55.63 1.35.42 2.66.63 3.93.63 2.71 0 5.58-.84 8.63-2.54.34-.25.51-.55.51-.89v-.25a81 81 0 00-2.54-8.88c-1.01-2.96-3-4.69-5.96-5.2l-.89-.13c-2.54 0-5.24 1.78-8.12 5.33a21.91 21.91 0 01-.89-6.6c0-1.61.13-3.38.38-5.33 0-.76-.34-1.14-1.01-1.14-.25 0-.47.04-.63.13l-1.78 1.4c-6.93 11.75-11.12 18.65-12.56 20.68-.93 1.18-2.75 1.78-5.45 1.78a23.3 23.3 0 01-3.3-.25c-4.31-.59-6.47-1.35-6.47-2.28v-.13c0-.76-.34-1.14-1.01-1.14-.17 0-2.33 1.06-6.47 3.17l-3.3-1.27c6.76-15.05 10.15-22.66 10.15-22.83 0-.17-.09-.38-.25-.63a.86.86 0 00-.76-.38 5.17 5.17 0 01-3.55-1.52 113.25 113.25 0 017.99-18.01c2.45-4.06 4.99-7.19 7.61-9.39v-.13a329.97 329.97 0 0122.71-19.53 401.48 401.48 0 0017.5-14.33 13.12 13.12 0 017.1-2.16c1.44 0 2.87.21 4.31.63 3.97 1.19 6.38 4.06 7.23 8.63.17.59.51.89 1.01.89.17 0 .36-.04.57-.13.21-.08.36-.25.44-.51.08-.25.13-.55.13-.89 0-.93-.3-2.71-.89-5.33a21.59 21.59 0 01-.38-3.93c0-1.86.29-3.63.89-5.33.76-2.2 2.83-3.3 6.22-3.3h1.52c1.27 0 5.37 1.06 12.3 3.17 0 .09.04.13.13.13 2.54.59 4.5 1.48 5.9 2.66 1.39 1.19 2.22 2.24 2.47 3.17l-.25 2.16-.13-.38a5.6 5.6 0 00-2.92-1.27h-.51c-4.48 1.44-8.25 2.16-11.29 2.16-3.04 0-4.57 1.06-4.57 3.17 0 .42.08.89.25 1.4.34.85.51 1.99.51 3.42 0 1.69-.25 3.85-.76 6.47-.93 4.57-4.48 9.3-10.66 14.21a32.7 32.7 0 00-12.3 20.29c-.42 2.2-.63 4.48-.63 6.85 0 5.75 1.23 12.05 3.68 18.9h-.13c-.34 0-.59.11-.76.32-.17.21-.25.36-.25.44v.25c0 .59.34 1.73 1.01 3.42l1.27 3.17c2.03 4.91 4.86 7.4 8.5 7.48 3.55 0 5.85-.27 6.91-.83 1.06-.55 2.64-.82 4.76-.82 1.27 0 2.03.25 2.28.76.08.25.13.63.13 1.14a2.01 2.01 0 00-.89-.25c-.42 0-.85.17-1.27.51a.94.94 0 00-.38.32c-.08.13-.49.25-1.2.38-.72.13-1.9.25-3.55.38-1.66.13-4 .2-7.05.2zm0 .12H66.13a5.26 5.26 0 00-3.42-1.27c-1.02 0-2.03.3-3.04.89 0-.51.36-1.06 1.08-1.65a4.57 4.57 0 012.98-.89c1.01 0 2.2.21 3.55.63 1.35.42 2.66.63 3.93.63 2.71 0 5.58-.84 8.63-2.54.34-.25.51-.55.51-.89v-.25a81 81 0 00-2.54-8.88c-1.01-2.96-3-4.69-5.96-5.2l-.89-.13c-2.54 0-5.24 1.78-8.12 5.33a21.91 21.91 0 01-.89-6.6c0-1.61.13-3.38.38-5.33 0-.76-.34-1.14-1.01-1.14-.25 0-.47.04-.63.13l-1.78 1.4c-6.93 11.75-11.12 18.65-12.56 20.67-.93 1.19-2.75 1.78-5.45 1.78a23.3 23.3 0 01-3.3-.25c-4.31-.59-6.47-1.35-6.47-2.28v-.13c0-.76-.34-1.14-1.01-1.14-.17 0-2.33 1.06-6.47 3.17l-3.3-1.27c6.76-15.05 10.15-22.66 10.15-22.83 0-.17-.09-.38-.25-.63a.86.86 0 00-.76-.38 5.17 5.17 0 01-3.55-1.52 113.25 113.25 0 017.99-18.01c2.45-4.06 4.99-7.19 7.61-9.39v-.13a329.97 329.97 0 0122.71-19.53 401.48 401.48 0 0017.5-14.33 13.12 13.12 0 017.1-2.16c1.44 0 2.87.21 4.31.63 3.97 1.19 6.38 4.06 7.23 8.63.17.59.51.89 1.01.89.17 0 .36-.04.57-.13.21-.08.36-.25.44-.51.08-.25.13-.55.13-.89 0-.93-.3-2.71-.89-5.33a21.59 21.59 0 01-.38-3.93c0-1.86.29-3.64.89-5.33.76-2.2 2.83-3.3 6.22-3.3h1.52c1.27 0 5.37 1.06 12.3 3.17 0 .09.04.13.13.13 2.54.59 4.5 1.48 5.9 2.66 1.39 1.19 2.22 2.24 2.47 3.17l-.25 2.16-.13-.38a5.52 5.52 0 00-2.92-1.27h-.51c-4.48 1.44-8.25 2.16-11.29 2.16-3.04 0-4.57 1.06-4.57 3.17 0 .42.08.89.25 1.4.34.85.51 1.99.51 3.42 0 1.69-.25 3.85-.76 6.47-.93 4.57-4.48 9.3-10.66 14.21a32.7 32.7 0 00-12.3 20.29c-.42 2.2-.63 4.48-.63 6.85 0 5.75 1.23 12.05 3.68 18.9h-.13c-.34 0-.59.11-.76.32-.17.21-.25.36-.25.44v.25c0 .59.34 1.73 1.01 3.42l1.27 3.17c2.03 4.91 4.86 7.4 8.5 7.48 3.55 0 5.85-.27 6.91-.83 1.06-.55 2.64-.82 4.76-.82 1.27 0 2.03.25 2.28.76.08.25.13.63.13 1.14a2.01 2.01 0 00-.89-.25c-.42 0-.85.17-1.27.51a.87.87 0 00-.38.32c-.08.13-.49.25-1.2.38-.72.13-1.9.25-3.55.38-1.66.15-4 .21-7.05.21zm-10.78-2.15c.25 0 .51-.08.76-.25.59-.42.89-1.18.89-2.28 0-1.35-.55-3.3-1.65-5.83-1.52-3.8-2.41-6.6-2.66-8.37-.17-.51-.47-.8-.89-.89-.51 0-.89.17-1.14.51l-1.52 3.04a8.14 8.14 0 00-2.41-1.65c-.93 0-1.4.42-1.4 1.27 0 .68.1 1.5.32 2.47.21.97.53 2.18.95 3.62 1.1 4.06 1.94 6.22 2.54 6.47 3.97 1.25 6.04 1.89 6.21 1.89zm0 .12c.25 0 .51-.08.76-.25.59-.42.89-1.18.89-2.28 0-1.35-.55-3.3-1.65-5.83-1.52-3.81-2.41-6.6-2.66-8.37-.17-.51-.47-.8-.89-.89-.51 0-.89.17-1.14.51l-1.52 3.04a8.14 8.14 0 00-2.41-1.65c-.93 0-1.4.42-1.4 1.27 0 .68.1 1.5.32 2.47.21.97.53 2.18.95 3.62 1.1 4.06 1.94 6.22 2.54 6.47 3.97 1.26 6.04 1.89 6.21 1.89zm81.94-51.88h-19.79c0-8.96-3.51-13.45-10.53-13.45-6.93 0-10.44 4.48-10.53 13.45h-19.79c.76-18.86 10.91-28.29 30.44-28.29 19.38.01 29.44 9.44 30.2 28.29zm0 .13h-19.79c0-8.96-3.51-13.45-10.53-13.45-6.93 0-10.44 4.48-10.53 13.45h-19.79c.76-18.86 10.91-28.29 30.44-28.29 19.38 0 29.44 9.43 30.2 28.29zm-7.35 52.64h-45.92c0-3.21.3-6.13.89-8.75.59-2.62 1.9-5.03 3.93-7.23 5.41-4.9 11.46-7.36 18.14-7.36 3.38 0 6.72.68 10.02 2.03 7.1 2.88 11.16 7.06 12.18 12.56.5 2.62.76 5.54.76 8.75zm0 .13h-45.92c0-3.21.3-6.13.89-8.75.59-2.62 1.9-5.03 3.93-7.23 5.41-4.9 11.46-7.36 18.14-7.36 3.38 0 6.72.68 10.02 2.03 7.1 2.88 11.16 7.06 12.18 12.56.5 2.62.76 5.53.76 8.75zm-3.3-3.3c0-1.86-.21-3.72-.63-5.58a10.29 10.29 0 00-2.92-5.07 21.3 21.3 0 00-7.23-4.5c-3.04-1.22-6-1.84-8.88-1.84-2.79 0-5.69.61-8.69 1.84-3 1.23-5.43 2.73-7.29 4.5-2.28 2.45-3.42 6.01-3.42 10.66h39.06zm0 .13c0-1.86-.21-3.72-.63-5.58a10.29 10.29 0 00-2.92-5.07 21.3 21.3 0 00-7.23-4.5c-3.04-1.22-6-1.84-8.88-1.84-2.79 0-5.69.61-8.69 1.84-3 1.23-5.43 2.73-7.29 4.5-2.28 2.45-3.42 6-3.42 10.66h39.06zM141.48 126c-2.37 0-3.93-1.9-4.69-5.71-.34-1.69-1.01-2.54-2.03-2.54-1.27 0-3.09 1.27-5.45 3.8a3.57 3.57 0 01-1.02-2.41c0-.68.25-1.39.76-2.16 1.1-1.61 2.49-2.41 4.19-2.41h16.36c1.61 0 3 .8 4.19 2.41.51.76.76 1.48.76 2.16 0 .85-.34 1.65-1.02 2.41-2.37-2.54-4.19-3.8-5.45-3.8-1.01 0-1.69.85-2.03 2.54-.69 3.81-2.21 5.71-4.57 5.71zm0 .13c-2.37 0-3.93-1.9-4.69-5.71-.34-1.69-1.01-2.54-2.03-2.54-1.27 0-3.09 1.27-5.45 3.81a3.57 3.57 0 01-1.02-2.41c0-.68.25-1.4.76-2.16 1.1-1.61 2.49-2.41 4.19-2.41h16.36c1.61 0 3 .8 4.19 2.41.51.76.76 1.48.76 2.16 0 .85-.34 1.65-1.02 2.41-2.37-2.54-4.19-3.81-5.45-3.81-1.01 0-1.69.85-2.03 2.54-.69 3.8-2.21 5.71-4.57 5.71z"/>
</svg>