<?xml version="1.0" ?><svg id="Layer_1" style="enable-background:new 0 0 64 64;" version="1.1" viewBox="0 0 64 64" xml:space="preserve" xmlns="http://www.w3.org/2000/svg" xmlns:xlink="http://www.w3.org/1999/xlink"><style type="text/css">
	.st0{fill:#00B1FF;}
	.st1{fill:#ffde03;}
	.st2{fill:#fb3253;}
</style><g><g><circle class="st0" cx="32" cy="32" r="32"/></g><g><path class="st2" d="M39.268,15.5c-0.276,0-0.5-0.224-0.5-0.5c0-0.827-0.673-1.5-1.5-1.5c-0.534,0-1.031,0.287-1.299,0.75    c-0.138,0.239-0.444,0.32-0.683,0.183c-0.239-0.138-0.321-0.444-0.182-0.683c0.446-0.771,1.275-1.25,2.165-1.25    c1.378,0,2.5,1.121,2.5,2.5C39.768,15.276,39.544,15.5,39.268,15.5z"/></g><g><path class="st2" d="M39.268,15.5c-0.276,0-0.5-0.224-0.5-0.5c0-1.379,1.122-2.5,2.5-2.5c0.89,0,1.719,0.479,2.165,1.25    c0.139,0.238,0.057,0.545-0.182,0.683c-0.241,0.138-0.545,0.057-0.683-0.183c-0.268-0.463-0.766-0.75-1.3-0.75    c-0.827,0-1.5,0.673-1.5,1.5C39.768,15.276,39.544,15.5,39.268,15.5z"/></g><g><path class="st2" d="M40.268,15.5h-2c-0.276,0-0.5-0.224-0.5-0.5s0.224-0.5,0.5-0.5h2c0.276,0,0.5,0.224,0.5,0.5    S40.544,15.5,40.268,15.5z"/></g><g><path class="st2" d="M51,27.5h-3c-0.276,0-0.5-0.224-0.5-0.5s0.224-0.5,0.5-0.5h3c0.276,0,0.5,0.224,0.5,0.5S51.276,27.5,51,27.5z    "/></g><g><path class="st1" d="M37,32.5c-0.276,0-0.5-0.224-0.5-0.5v-3.566l-6.571-0.938c-0.273-0.039-0.463-0.292-0.424-0.565    c0.04-0.273,0.294-0.458,0.566-0.425l7,1C37.317,27.54,37.5,27.751,37.5,28v4C37.5,32.276,37.276,32.5,37,32.5z"/></g><g><path class="st1" d="M30,34.5c-0.276,0-0.5-0.224-0.5-0.5v-6.307l-2,0.667V34c0,0.276-0.224,0.5-0.5,0.5s-0.5-0.224-0.5-0.5v-6    c0-0.215,0.138-0.406,0.342-0.475l3-1c0.152-0.05,0.32-0.025,0.451,0.069C30.423,26.688,30.5,26.839,30.5,27v7    C30.5,34.276,30.276,34.5,30,34.5z"/></g><g><path class="st1" d="M11,49.5c-0.276,0-0.5-0.224-0.5-0.5v-1c0-0.276,0.224-0.5,0.5-0.5h4.664c0.276,0,0.5,0.224,0.5,0.5    s-0.224,0.5-0.5,0.5H11.5V49C11.5,49.276,11.276,49.5,11,49.5z"/></g><g><path class="st1" d="M51,48.5h-5.5c-0.276,0-0.5-0.224-0.5-0.5s0.224-0.5,0.5-0.5h5v-1H44c-0.276,0-0.5-0.224-0.5-0.5    s0.224-0.5,0.5-0.5h7c0.276,0,0.5,0.224,0.5,0.5v2C51.5,48.276,51.276,48.5,51,48.5z"/></g><g><path class="st1" d="M31.25,48.5H23c-0.276,0-0.5-0.224-0.5-0.5v-2c0-0.276,0.224-0.5,0.5-0.5h8.5c0.276,0,0.5,0.224,0.5,0.5    s-0.224,0.5-0.5,0.5h-8v1h7.75c0.276,0,0.5,0.224,0.5,0.5S31.526,48.5,31.25,48.5z"/></g><g><path class="st1" d="M23,48.5h-3.75c-0.276,0-0.5-0.224-0.5-0.5s0.224-0.5,0.5-0.5h3.25v-1h-2c-0.276,0-0.5-0.224-0.5-0.5    s0.224-0.5,0.5-0.5H23c0.276,0,0.5,0.224,0.5,0.5v2C23.5,48.276,23.276,48.5,23,48.5z"/></g><g><path class="st1" d="M15.664,48.5H13c-0.276,0-0.5-0.224-0.5-0.5v-2c0-0.276,0.224-0.5,0.5-0.5h4.289c0.276,0,0.5,0.224,0.5,0.5    s-0.224,0.5-0.5,0.5H13.5v1h2.164c0.276,0,0.5,0.224,0.5,0.5S15.94,48.5,15.664,48.5z"/></g><g><path class="st1" d="M49,46.5h-5c-0.276,0-0.5-0.224-0.5-0.5s0.224-0.5,0.5-0.5h4.5v-1h-6c-0.276,0-0.5-0.224-0.5-0.5    s0.224-0.5,0.5-0.5H49c0.276,0,0.5,0.224,0.5,0.5v2C49.5,46.276,49.276,46.5,49,46.5z"/></g><g><path class="st1" d="M31.5,46.5H24c-0.276,0-0.5-0.224-0.5-0.5v-2c0-0.276,0.224-0.5,0.5-0.5h7.75c0.276,0,0.5,0.224,0.5,0.5    s-0.224,0.5-0.5,0.5H24.5v1h7c0.276,0,0.5,0.224,0.5,0.5S31.776,46.5,31.5,46.5z"/></g><g><path class="st1" d="M24,46.5h-3.5c-0.276,0-0.5-0.224-0.5-0.5s0.224-0.5,0.5-0.5h3v-1h-1.75c-0.276,0-0.5-0.224-0.5-0.5    s0.224-0.5,0.5-0.5H24c0.276,0,0.5,0.224,0.5,0.5v2C24.5,46.276,24.276,46.5,24,46.5z"/></g><g><path class="st1" d="M17.289,46.5H15c-0.276,0-0.5-0.224-0.5-0.5v-2c0-0.276,0.224-0.5,0.5-0.5h3.914c0.276,0,0.5,0.224,0.5,0.5    s-0.224,0.5-0.5,0.5H15.5v1h1.789c0.276,0,0.5,0.224,0.5,0.5S17.565,46.5,17.289,46.5z"/></g><g><path class="st1" d="M47,44.5h-4.5c-0.276,0-0.5-0.224-0.5-0.5s0.224-0.5,0.5-0.5h4v-1H41c-0.276,0-0.5-0.224-0.5-0.5    s0.224-0.5,0.5-0.5h6c0.276,0,0.5,0.224,0.5,0.5v2C47.5,44.276,47.276,44.5,47,44.5z"/></g><g><path class="st1" d="M31.75,44.5H25c-0.276,0-0.5-0.224-0.5-0.5v-2c0-0.276,0.224-0.5,0.5-0.5h7c0.276,0,0.5,0.224,0.5,0.5    s-0.224,0.5-0.5,0.5h-6.5v1h6.25c0.276,0,0.5,0.224,0.5,0.5S32.026,44.5,31.75,44.5z"/></g><g><path class="st1" d="M25,44.5h-3.25c-0.276,0-0.5-0.224-0.5-0.5s0.224-0.5,0.5-0.5h2.75v-1H23c-0.276,0-0.5-0.224-0.5-0.5    s0.224-0.5,0.5-0.5h2c0.276,0,0.5,0.224,0.5,0.5v2C25.5,44.276,25.276,44.5,25,44.5z"/></g><g><path class="st1" d="M18.914,44.5H17c-0.276,0-0.5-0.224-0.5-0.5v-2c0-0.276,0.224-0.5,0.5-0.5h3.539c0.276,0,0.5,0.224,0.5,0.5    s-0.224,0.5-0.5,0.5H17.5v1h1.414c0.276,0,0.5,0.224,0.5,0.5S19.19,44.5,18.914,44.5z"/></g><g><path class="st1" d="M45,42.5h-4c-0.276,0-0.5-0.224-0.5-0.5s0.224-0.5,0.5-0.5h3.5v-1h-5c-0.276,0-0.5-0.224-0.5-0.5    s0.224-0.5,0.5-0.5H45c0.276,0,0.5,0.224,0.5,0.5v2C45.5,42.276,45.276,42.5,45,42.5z"/></g><g><path class="st1" d="M32,42.5h-6c-0.276,0-0.5-0.224-0.5-0.5v-2c0-0.276,0.224-0.5,0.5-0.5h6.25c0.276,0,0.5,0.224,0.5,0.5    s-0.224,0.5-0.5,0.5H26.5v1H32c0.276,0,0.5,0.224,0.5,0.5S32.276,42.5,32,42.5z"/></g><g><path class="st1" d="M26,42.5h-3c-0.276,0-0.5-0.224-0.5-0.5s0.224-0.5,0.5-0.5h2.5v-1h-1.25c-0.276,0-0.5-0.224-0.5-0.5    s0.224-0.5,0.5-0.5H26c0.276,0,0.5,0.224,0.5,0.5v2C26.5,42.276,26.276,42.5,26,42.5z"/></g><g><path class="st1" d="M20.539,42.5H19c-0.276,0-0.5-0.224-0.5-0.5v-2c0-0.276,0.224-0.5,0.5-0.5h3.164c0.276,0,0.5,0.224,0.5,0.5    s-0.224,0.5-0.5,0.5H19.5v1h1.039c0.276,0,0.5,0.224,0.5,0.5S20.815,42.5,20.539,42.5z"/></g><g><path class="st1" d="M43,40.5h-3.5c-0.276,0-0.5-0.224-0.5-0.5s0.224-0.5,0.5-0.5h3v-1H38c-0.276,0-0.5-0.224-0.5-0.5    s0.224-0.5,0.5-0.5h5c0.276,0,0.5,0.224,0.5,0.5v2C43.5,40.276,43.276,40.5,43,40.5z"/></g><g><path class="st1" d="M32.25,40.5H27c-0.276,0-0.5-0.224-0.5-0.5v-2c0-0.276,0.224-0.5,0.5-0.5h5.5c0.276,0,0.5,0.224,0.5,0.5    s-0.224,0.5-0.5,0.5h-5v1h4.75c0.276,0,0.5,0.224,0.5,0.5S32.526,40.5,32.25,40.5z"/></g><g><path class="st1" d="M27,40.5h-2.75c-0.276,0-0.5-0.224-0.5-0.5s0.224-0.5,0.5-0.5h2.25v-1h-1c-0.276,0-0.5-0.224-0.5-0.5    s0.224-0.5,0.5-0.5H27c0.276,0,0.5,0.224,0.5,0.5v2C27.5,40.276,27.276,40.5,27,40.5z"/></g><g><path class="st1" d="M22.164,40.5H21c-0.276,0-0.5-0.224-0.5-0.5v-2c0-0.276,0.224-0.5,0.5-0.5h2.789c0.276,0,0.5,0.224,0.5,0.5    s-0.224,0.5-0.5,0.5H21.5v1h0.664c0.276,0,0.5,0.224,0.5,0.5S22.44,40.5,22.164,40.5z"/></g><g><path class="st1" d="M41,38.5h-3c-0.276,0-0.5-0.224-0.5-0.5s0.224-0.5,0.5-0.5h2.5v-1h-4c-0.276,0-0.5-0.224-0.5-0.5    s0.224-0.5,0.5-0.5H41c0.276,0,0.5,0.224,0.5,0.5v2C41.5,38.276,41.276,38.5,41,38.5z"/></g><g><path class="st1" d="M32.5,38.5H28c-0.276,0-0.5-0.224-0.5-0.5v-2c0-0.276,0.224-0.5,0.5-0.5h4.75c0.276,0,0.5,0.224,0.5,0.5    s-0.224,0.5-0.5,0.5H28.5v1h4c0.276,0,0.5,0.224,0.5,0.5S32.776,38.5,32.5,38.5z"/></g><g><path class="st1" d="M28,38.5h-2.5c-0.276,0-0.5-0.224-0.5-0.5s0.224-0.5,0.5-0.5h2v-1h-0.75c-0.276,0-0.5-0.224-0.5-0.5    s0.224-0.5,0.5-0.5H28c0.276,0,0.5,0.224,0.5,0.5v2C28.5,38.276,28.276,38.5,28,38.5z"/></g><g><path class="st1" d="M23.789,38.5H23c-0.276,0-0.5-0.224-0.5-0.5v-2c0-0.276,0.224-0.5,0.5-0.5h2.414c0.276,0,0.5,0.224,0.5,0.5    s-0.224,0.5-0.5,0.5H23.5v1h0.289c0.276,0,0.5,0.224,0.5,0.5S24.065,38.5,23.789,38.5z"/></g><g><path class="st1" d="M39,36.5h-2.5c-0.276,0-0.5-0.224-0.5-0.5s0.224-0.5,0.5-0.5h2v-1h-9v1h3.25c0.276,0,0.5,0.224,0.5,0.5    s-0.224,0.5-0.5,0.5H29c-0.276,0-0.5-0.224-0.5-0.5v-2c0-0.276,0.224-0.5,0.5-0.5h10c0.276,0,0.5,0.224,0.5,0.5v2    C39.5,36.276,39.276,36.5,39,36.5z"/></g><g><path class="st1" d="M29,36.5h-2.25c-0.276,0-0.5-0.224-0.5-0.5s0.224-0.5,0.5-0.5h1.75v-1h-3v1.008    c0.235,0.04,0.414,0.245,0.414,0.492c0,0.276-0.224,0.5-0.5,0.5H25c-0.276,0-0.5-0.224-0.5-0.5v-2c0-0.276,0.224-0.5,0.5-0.5h4    c0.276,0,0.5,0.224,0.5,0.5v2C29.5,36.276,29.276,36.5,29,36.5z"/></g><g><path class="st1" d="M18.625,49.5c-0.09,0-0.182-0.024-0.265-0.076c-0.234-0.146-0.305-0.455-0.159-0.688L26.5,35.456    L15.24,49.315c-0.174,0.214-0.489,0.249-0.704,0.072c-0.214-0.174-0.247-0.488-0.073-0.703l12.188-15    c0.095-0.117,0.238-0.185,0.388-0.185H28c0.182,0,0.349,0.099,0.438,0.258c0.088,0.159,0.083,0.354-0.014,0.507l-9.375,15    C18.954,49.417,18.791,49.5,18.625,49.5z"/></g><g><path class="st1" d="M31.125,49.5c-0.021,0-0.042-0.001-0.063-0.004c-0.274-0.034-0.468-0.284-0.434-0.559l1.875-15    C32.535,33.688,32.748,33.5,33,33.5h2c0.157,0,0.306,0.074,0.4,0.2l11.25,15c0.166,0.221,0.121,0.534-0.1,0.7    c-0.222,0.164-0.535,0.12-0.7-0.101l-11.1-14.8h-1.309l-1.82,14.563C31.589,49.315,31.374,49.5,31.125,49.5z"/></g><g><path class="st1" d="M22,49.5c-0.276,0-0.5-0.224-0.5-0.5v-1c0-0.276,0.224-0.5,0.5-0.5h9.25c0.276,0,0.5,0.224,0.5,0.5    s-0.224,0.5-0.5,0.5H22.5V49C22.5,49.276,22.276,49.5,22,49.5z"/></g><g><path class="st1" d="M53,48.5h-7.5c-0.276,0-0.5-0.224-0.5-0.5s0.224-0.5,0.5-0.5H53c0.276,0,0.5,0.224,0.5,0.5    S53.276,48.5,53,48.5z"/></g><g><path class="st1" d="M37,40.5h-2c-0.276,0-0.5-0.224-0.5-0.5s0.224-0.5,0.5-0.5h2c0.276,0,0.5,0.224,0.5,0.5S37.276,40.5,37,40.5z    "/></g><g><path class="st1" d="M42,48.5h-3c-0.276,0-0.5-0.224-0.5-0.5s0.224-0.5,0.5-0.5h3c0.276,0,0.5,0.224,0.5,0.5S42.276,48.5,42,48.5z    "/></g><g><path class="st1" d="M35,38.5h-1c-0.276,0-0.5-0.224-0.5-0.5s0.224-0.5,0.5-0.5h1c0.276,0,0.5,0.224,0.5,0.5S35.276,38.5,35,38.5z    "/></g><g><path class="st1" d="M36,42.5h-2c-0.276,0-0.5-0.224-0.5-0.5s0.224-0.5,0.5-0.5h2c0.276,0,0.5,0.224,0.5,0.5S36.276,42.5,36,42.5z    "/></g><g><path class="st1" d="M40,44.5h-3c-0.276,0-0.5-0.224-0.5-0.5s0.224-0.5,0.5-0.5h3c0.276,0,0.5,0.224,0.5,0.5S40.276,44.5,40,44.5z    "/></g><g><path class="st1" d="M38,46.5h-3c-0.276,0-0.5-0.224-0.5-0.5s0.224-0.5,0.5-0.5h3c0.276,0,0.5,0.224,0.5,0.5S38.276,46.5,38,46.5z    "/></g><g><path class="st1" d="M35,34.5h-2c-0.276,0-0.5-0.224-0.5-0.5v-2c0-0.827,0.673-1.5,1.5-1.5s1.5,0.673,1.5,1.5v2    C35.5,34.276,35.276,34.5,35,34.5z M33.5,33.5h1V32c0-0.275-0.224-0.5-0.5-0.5s-0.5,0.225-0.5,0.5V33.5z"/></g><g><path class="st1" d="M27,30.5c-0.209,0-0.404-0.133-0.474-0.342c-0.087-0.262,0.054-0.545,0.316-0.633l3-1    c0.074-0.023,0.153-0.029,0.229-0.021l7,1c0.273,0.039,0.463,0.292,0.424,0.565c-0.039,0.274-0.289,0.463-0.566,0.425    l-6.883-0.983l-2.888,0.963C27.105,30.492,27.052,30.5,27,30.5z"/></g><g><path class="st2" d="M23,22.5h-3c-0.276,0-0.5-0.224-0.5-0.5v-1c0-1.379-1.122-2.5-2.5-2.5s-2.5,1.121-2.5,2.5v1    c0,0.276-0.224,0.5-0.5,0.5s-0.5-0.224-0.5-0.5v-0.5c0-0.552-0.449-1-1-1s-1,0.448-1,1V22c0,0.276-0.224,0.5-0.5,0.5H8    c-0.276,0-0.5-0.224-0.5-0.5s0.224-0.5,0.5-0.5h2.5c0-1.103,0.897-2,2-2c0.441,0,0.85,0.144,1.181,0.387    C14.147,18.501,15.459,17.5,17,17.5c1.93,0,3.5,1.57,3.5,3.5v0.5H23c0.276,0,0.5,0.224,0.5,0.5S23.276,22.5,23,22.5z"/></g><g><path class="st2" d="M25,9.5h-4c-0.276,0-0.5-0.224-0.5-0.5s0.224-0.5,0.5-0.5h4c0.276,0,0.5,0.224,0.5,0.5S25.276,9.5,25,9.5z"/></g></g></svg>