<svg id="Layer_1" version="1.1" viewBox="0 0 64 64" xml:space="preserve" xmlns="http://www.w3.org/2000/svg">
  <style>
    .st1{fill:#ffde03}.st2{fill:#fb3253}
  </style>
  <circle cx="32" cy="32" r="32" fill="#00b1ff"/>
  <path class="st2" d="M39.27 15.5a.5.5 0 01-.5-.5 1.5 1.5 0 00-2.8-.75.5.5 0 11-.87-.5A2.5 2.5 0 0139.76 15a.5.5 0 01-.5.5z"/>
  <path class="st2" d="M39.27 15.5a.5.5 0 01-.5-.5 2.5 2.5 0 014.66-1.25.5.5 0 11-.86.5 1.5 1.5 0 00-2.8.75.5.5 0 01-.5.5z"/>
  <path class="st2" d="M40.27 15.5h-2a.5.5 0 010-1h2a.5.5 0 010 1zM51 27.5h-3a.5.5 0 010-1h3a.5.5 0 010 1z"/>
  <path class="st1" d="M37 32.5a.5.5 0 01-.5-.5v-3.57l-6.57-.93a.5.5 0 11.14-1l7 1a.5.5 0 01.43.5v4a.5.5 0 01-.5.5z"/>
  <path class="st1" d="M30 34.5a.5.5 0 01-.5-.5v-6.3l-2 .66V34a.5.5 0 01-1 0v-6c0-.21.14-.4.34-.47l3-1a.5.5 0 01.66.48v6.99a.5.5 0 01-.5.5zM11 49.5a.5.5 0 01-.5-.5v-1c0-.28.22-.5.5-.5h4.66a.5.5 0 010 1H11.5v.5a.5.5 0 01-.5.5zM51 48.5h-5.5a.5.5 0 010-1h5v-1H44a.5.5 0 010-1h7c.28 0 .5.22.5.5v2a.5.5 0 01-.5.5zM31.25 48.5H23a.5.5 0 01-.5-.5v-2c0-.28.22-.5.5-.5h8.5a.5.5 0 010 1h-8v1h7.75a.5.5 0 010 1z"/>
  <path class="st1" d="M23 48.5h-3.75a.5.5 0 010-1h3.25v-1h-2a.5.5 0 010-1H23c.28 0 .5.22.5.5v2a.5.5 0 01-.5.5zM15.66 48.5H13a.5.5 0 01-.5-.5v-2c0-.28.22-.5.5-.5h4.29a.5.5 0 010 1H13.5v1h2.16a.5.5 0 010 1zM49 46.5h-5a.5.5 0 010-1h4.5v-1h-6a.5.5 0 010-1H49c.28 0 .5.22.5.5v2a.5.5 0 01-.5.5zM31.5 46.5H24a.5.5 0 01-.5-.5v-2c0-.28.22-.5.5-.5h7.75a.5.5 0 010 1H24.5v1h7a.5.5 0 010 1z"/>
  <path class="st1" d="M24 46.5h-3.5a.5.5 0 010-1h3v-1h-1.75a.5.5 0 010-1H24c.28 0 .5.22.5.5v2a.5.5 0 01-.5.5zM17.29 46.5H15a.5.5 0 01-.5-.5v-2c0-.28.22-.5.5-.5h3.91a.5.5 0 010 1H15.5v1h1.79a.5.5 0 010 1zM47 44.5h-4.5a.5.5 0 010-1h4v-1H41a.5.5 0 010-1h6c.28 0 .5.22.5.5v2a.5.5 0 01-.5.5zM31.75 44.5H25a.5.5 0 01-.5-.5v-2c0-.28.22-.5.5-.5h7a.5.5 0 010 1h-6.5v1h6.25a.5.5 0 010 1z"/>
  <path class="st1" d="M25 44.5h-3.25a.5.5 0 010-1h2.75v-1H23a.5.5 0 010-1h2c.28 0 .5.22.5.5v2a.5.5 0 01-.5.5zM18.91 44.5H17a.5.5 0 01-.5-.5v-2c0-.28.22-.5.5-.5h3.54a.5.5 0 010 1H17.5v1h1.41a.5.5 0 010 1zM45 42.5h-4a.5.5 0 010-1h3.5v-1h-5a.5.5 0 010-1H45c.28 0 .5.22.5.5v2a.5.5 0 01-.5.5zM32 42.5h-6a.5.5 0 01-.5-.5v-2c0-.28.22-.5.5-.5h6.25a.5.5 0 010 1H26.5v1H32a.5.5 0 010 1z"/>
  <path class="st1" d="M26 42.5h-3a.5.5 0 010-1h2.5v-1h-1.25a.5.5 0 010-1H26c.28 0 .5.22.5.5v2a.5.5 0 01-.5.5zM20.54 42.5H19a.5.5 0 01-.5-.5v-2c0-.28.22-.5.5-.5h3.16a.5.5 0 010 1H19.5v1h1.04a.5.5 0 010 1zM43 40.5h-3.5a.5.5 0 010-1h3v-1H38a.5.5 0 010-1h5c.28 0 .5.22.5.5v2a.5.5 0 01-.5.5zM32.25 40.5H27a.5.5 0 01-.5-.5v-2c0-.28.22-.5.5-.5h5.5a.5.5 0 010 1h-5v1h4.75a.5.5 0 010 1z"/>
  <path class="st1" d="M27 40.5h-2.75a.5.5 0 010-1h2.25v-1h-1a.5.5 0 010-1H27c.28 0 .5.22.5.5v2a.5.5 0 01-.5.5zM22.16 40.5H21a.5.5 0 01-.5-.5v-2c0-.28.22-.5.5-.5h2.79a.5.5 0 010 1H21.5v1h.66a.5.5 0 010 1zM41 38.5h-3a.5.5 0 010-1h2.5v-1h-4a.5.5 0 010-1H41c.28 0 .5.22.5.5v2a.5.5 0 01-.5.5zM32.5 38.5H28a.5.5 0 01-.5-.5v-2c0-.28.22-.5.5-.5h4.75a.5.5 0 010 1H28.5v1h4a.5.5 0 010 1z"/>
  <path class="st1" d="M28 38.5h-2.5a.5.5 0 010-1h2v-1h-.75a.5.5 0 010-1H28c.28 0 .5.22.5.5v2a.5.5 0 01-.5.5zM23.79 38.5H23a.5.5 0 01-.5-.5v-2c0-.28.22-.5.5-.5h2.41a.5.5 0 010 1H23.5v1h.29a.5.5 0 010 1zM39 36.5h-2.5a.5.5 0 010-1h2v-1h-9v1h3.25a.5.5 0 010 1H29a.5.5 0 01-.5-.5v-2c0-.28.22-.5.5-.5h10c.28 0 .5.22.5.5v2a.5.5 0 01-.5.5z"/>
  <path class="st1" d="M29 36.5h-2.25a.5.5 0 010-1h1.75v-1h-3v1a.5.5 0 01-.09 1H25a.5.5 0 01-.5-.5v-2c0-.28.22-.5.5-.5h4c.28 0 .5.22.5.5v2a.5.5 0 01-.5.5z"/>
  <path class="st1" d="M18.63 49.5a.5.5 0 01-.42-.76l8.29-13.28L15.24 49.3a.5.5 0 01-.78-.63l12.2-15a.5.5 0 01.38-.18H28c.18 0 .35.1.44.26a.5.5 0 01-.02.5l-9.37 15a.5.5 0 01-.43.24zM31.13 49.5h-.07a.5.5 0 01-.43-.56l1.87-15a.5.5 0 01.5-.44h2c.16 0 .3.07.4.2l11.25 15a.5.5 0 11-.8.6l-11.1-14.8h-1.3l-1.83 14.56a.5.5 0 01-.5.44z"/>
  <path class="st1" d="M22 49.5a.5.5 0 01-.5-.5v-1c0-.28.22-.5.5-.5h9.25a.5.5 0 010 1H22.5v.5a.5.5 0 01-.5.5zM53 48.5h-7.5a.5.5 0 010-1H53a.5.5 0 010 1zM37 40.5h-2a.5.5 0 010-1h2a.5.5 0 010 1zM42 48.5h-3a.5.5 0 010-1h3a.5.5 0 010 1zM35 38.5h-1a.5.5 0 010-1h1a.5.5 0 010 1zM36 42.5h-2a.5.5 0 010-1h2a.5.5 0 010 1zM40 44.5h-3a.5.5 0 010-1h3a.5.5 0 010 1zM38 46.5h-3a.5.5 0 010-1h3a.5.5 0 010 1zM35 34.5h-2a.5.5 0 01-.5-.5v-2a1.5 1.5 0 013 0v2a.5.5 0 01-.5.5zm-1.5-1h1V32a.5.5 0 00-1 0v1.5z"/>
  <path class="st1" d="M27 30.5a.5.5 0 01-.16-.97l3-1a.57.57 0 01.23-.03l7 1a.5.5 0 11-.14 1l-6.88-.99-2.9.96a.49.49 0 01-.15.03z"/>
  <path class="st2" d="M23 22.5h-3a.5.5 0 01-.5-.5v-1a2.5 2.5 0 00-5 0v1a.5.5 0 01-1 0v-.5a1 1 0 00-2 0v.5a.5.5 0 01-.5.5H8a.5.5 0 010-1h2.5a2 2 0 013.18-1.61A3.5 3.5 0 0120.5 21v.5H23a.5.5 0 010 1zM25 9.5h-4a.5.5 0 010-1h4a.5.5 0 010 1z"/>
</svg>